<?xml version="1.0" encoding="UTF-8" standalone="no"?>
<svg width="71px" height="21px" viewBox="0 0 71 21" version="1.1" xmlns="http://www.w3.org/2000/svg" xmlns:xlink="http://www.w3.org/1999/xlink">
    <!-- Generator: Sketch 3.8.2 (29753) - http://www.bohemiancoding.com/sketch -->
    <title>Icons</title>
    <desc>Created with Sketch.</desc>
    <defs></defs>
    <g id="Page-1" stroke="none" stroke-width="1" fill="none" fill-rule="evenodd">
        <g id="Icons" transform="translate(-3.000000, -2.000000)">
            <g id="ic_desktop_mac_black_48px" transform="translate(20.000000, 0.000000)">
                <g id="Group">
                    <polygon id="Shape" points="0 0 25 0 25 25 0 25"></polygon>
                    <path d="M21.875,2.08333333 L3.125,2.08333333 C1.97916667,2.08333333 1.04166667,3.02083333 1.04166667,4.16666667 L1.04166667,16.6666667 C1.04166667,17.8125 1.97916667,18.75 3.125,18.75 L10.4166667,18.75 L8.33333333,21.875 L8.33333333,22.9166667 L16.6666667,22.9166667 L16.6666667,21.875 L14.5833333,18.75 L21.875,18.75 C23.0208333,18.75 23.9583333,17.8125 23.9583333,16.6666667 L23.9583333,4.16666667 C23.9583333,3.02083333 23.0208333,2.08333333 21.875,2.08333333 L21.875,2.08333333 Z M21.875,14.5833333 L3.125,14.5833333 L3.125,4.16666667 L21.875,4.16666667 L21.875,14.5833333 L21.875,14.5833333 Z" id="Shape" fill="#000000"></path>
                </g>
            </g>
            <g id="ic_laptop_mac_black_48px" transform="translate(50.000000, 0.000000)">
                <g id="Group">
                    <polygon id="Shape" points="0 0 24 0 24 24 0 24"></polygon>
                    <path d="M20,18 C21.1,18 21.99,17.1 21.99,16 L22,5 C22,3.9 21.1,3 20,3 L4,3 C2.9,3 2,3.9 2,5 L2,16 C2,17.1 2.9,18 4,18 L0,18 C0,19.1 0.9,20 2,20 L22,20 C23.1,20 24,19.1 24,18 L20,18 L20,18 Z M4,5 L20,5 L20,16 L4,16 L4,5 L4,5 Z M12,19 C11.45,19 11,18.55 11,18 C11,17.45 11.45,17 12,17 C12.55,17 13,17.45 13,18 C13,18.55 12.55,19 12,19 L12,19 Z" id="Shape" fill="#000000"></path>
                </g>
            </g>
            <g id="ic_phone_android_black_48px" transform="translate(0.000000, 5.000000)">
                <g id="Group">
                    <path d="M10,0.625 L5,0.625 C3.9625,0.625 3.125,1.4625 3.125,2.5 L3.125,12.5 C3.125,13.5375 3.9625,14.375 5,14.375 L10,14.375 C11.0375,14.375 11.875,13.5375 11.875,12.5 L11.875,2.5 C11.875,1.4625 11.0375,0.625 10,0.625 L10,0.625 Z M8.75,13.125 L6.25,13.125 L6.25,12.5 L8.75,12.5 L8.75,13.125 L8.75,13.125 Z M10.78125,11.25 L4.21875,11.25 L4.21875,2.5 L10.78125,2.5 L10.78125,11.25 L10.78125,11.25 Z" id="Shape" fill="#000000"></path>
                    <polygon id="Shape" points="0 0 15 0 15 15 0 15"></polygon>
                </g>
            </g>
        </g>
    </g>
</svg>