<?xml version="1.0" encoding="UTF-8" standalone="no"?>
<svg width="150px" height="45px" viewBox="0 0 150 45" version="1.1" xmlns="http://www.w3.org/2000/svg" xmlns:xlink="http://www.w3.org/1999/xlink" style="background: #FFFFFF;">
    <!-- Generator: Sketch 3.8.1 (29687) - http://www.bohemiancoding.com/sketch -->
    <title>Icons</title>
    <desc>Created with Sketch.</desc>
    <defs></defs>
    <g id="Page-1" stroke="none" stroke-width="1" fill="none" fill-rule="evenodd">
        <g id="Design-page" transform="translate(-647.000000, -267.000000)">
            <g id="Design">
                <g id="title" transform="translate(0.000000, 135.000000)">
                    <rect id="Rectangle-11" fill="#FFFFFF" x="0" y="0" width="1440" height="200"></rect>
                    <g id="Title" transform="translate(595.000000, 19.000000)">
                        <g id="Icons" transform="translate(46.218487, 109.080220)">
                            <g id="ic_desktop_mac_black_48px" transform="translate(42.016807, 0.000000)">
                                <g id="Group">
                                    <polygon id="Shape" points="0 0 52.5210084 0 52.5210084 52.4424136 0 52.4424136"></polygon>
                                    <path d="M45.9558824,4.37020113 L6.56512605,4.37020113 C4.15791317,4.37020113 2.18837535,6.33679164 2.18837535,8.74040226 L2.18837535,34.961609 C2.18837535,37.3652197 4.15791317,39.3318102 6.56512605,39.3318102 L21.8837535,39.3318102 L17.5070028,45.8871119 L17.5070028,48.0722124 L35.0140056,48.0722124 L35.0140056,45.8871119 L30.6372549,39.3318102 L45.9558824,39.3318102 C48.3630952,39.3318102 50.3326331,37.3652197 50.3326331,34.961609 L50.3326331,8.74040226 C50.3326331,6.33679164 48.3630952,4.37020113 45.9558824,4.37020113 L45.9558824,4.37020113 Z M45.9558824,30.5914079 L6.56512605,30.5914079 L6.56512605,8.74040226 L45.9558824,8.74040226 L45.9558824,30.5914079 L45.9558824,30.5914079 Z" id="Shape" fill="#000000"></path>
                                </g>
                            </g>
                            <g id="ic_laptop_mac_black_48px" transform="translate(105.042017, 0.000000)">
                                <g id="Group">
                                    <polygon id="Shape" points="-5.68434189e-14 0 50.4201681 0 50.4201681 50.344717 -5.68434189e-14 50.344717"></polygon>
                                    <path d="M42.0168067,37.7585378 C44.3277311,37.7585378 46.197479,35.8706109 46.197479,33.5631447 L46.2184874,10.4884827 C46.2184874,8.18101651 44.3277311,6.29308963 42.0168067,6.29308963 L8.40336134,6.29308963 C6.09243697,6.29308963 4.20168067,8.18101651 4.20168067,10.4884827 L4.20168067,33.5631447 C4.20168067,35.8706109 6.09243697,37.7585378 8.40336134,37.7585378 L-5.68434189e-14,37.7585378 C-5.68434189e-14,40.066004 1.8907563,41.9539308 4.20168067,41.9539308 L46.2184874,41.9539308 C48.5294118,41.9539308 50.4201681,40.066004 50.4201681,37.7585378 L42.0168067,37.7585378 L42.0168067,37.7585378 Z M8.40336134,10.4884827 L42.0168067,10.4884827 L42.0168067,33.5631447 L8.40336134,33.5631447 L8.40336134,10.4884827 L8.40336134,10.4884827 Z M25.210084,39.8562343 C24.0546218,39.8562343 23.1092437,38.9122709 23.1092437,37.7585378 C23.1092437,36.6048047 24.0546218,35.6608412 25.210084,35.6608412 C26.3655462,35.6608412 27.3109244,36.6048047 27.3109244,37.7585378 C27.3109244,38.9122709 26.3655462,39.8562343 25.210084,39.8562343 L25.210084,39.8562343 Z" id="Shape" fill="#000000"></path>
                                </g>
                            </g>
                            <g id="ic_phone_android_black_48px" transform="translate(0.000000, 10.488483)">
                                <g id="Group">
                                    <path d="M21.0084034,1.31106034 L10.5042017,1.31106034 C8.32457983,1.31106034 6.56512605,3.06788119 6.56512605,5.24424136 L6.56512605,26.2212068 C6.56512605,28.3975669 8.32457983,30.1543878 10.5042017,30.1543878 L21.0084034,30.1543878 C23.1880252,30.1543878 24.947479,28.3975669 24.947479,26.2212068 L24.947479,5.24424136 C24.947479,3.06788119 23.1880252,1.31106034 21.0084034,1.31106034 L21.0084034,1.31106034 Z M18.3823529,27.5322671 L13.1302521,27.5322671 L13.1302521,26.2212068 L18.3823529,26.2212068 L18.3823529,27.5322671 L18.3823529,27.5322671 Z M22.6496849,23.5990861 L8.86292017,23.5990861 L8.86292017,5.24424136 L22.6496849,5.24424136 L22.6496849,23.5990861 L22.6496849,23.5990861 Z" id="Shape" fill="#000000"></path>
                                    <polygon id="Shape" points="0 0 31.512605 0 31.512605 31.4654481 0 31.4654481"></polygon>
                                </g>
                            </g>
                        </g>
                    </g>
                </g>
            </g>
        </g>
    </g>
</svg>