<?xml version="1.0" encoding="UTF-8" standalone="no"?>
<svg width="106px" height="26px" viewBox="0 0 106 26" version="1.1" xmlns="http://www.w3.org/2000/svg" xmlns:xlink="http://www.w3.org/1999/xlink">
    <!-- Generator: Sketch 3.8.1 (29687) - http://www.bohemiancoding.com/sketch -->
    <title>Icons</title>
    <desc>Created with Sketch.</desc>
    <defs></defs>
    <g id="Page-1" stroke="none" stroke-width="1" fill="none" fill-rule="evenodd">
        <g id="Home-Page" transform="translate(-667.000000, -1498.000000)">
            <g id="Marketing" transform="translate(0.000000, 1435.000000)">
                <rect id="Rectangle-3" fill="#FBFAFA" x="0" y="0" width="1440" height="500"></rect>
                <g id="title-copy-2" transform="translate(633.000000, 9.000000)">
                    <g id="Title">
                        <g id="Icons" transform="translate(32.000000, 52.000000)">
                            <g id="ic_face_white_48px" transform="translate(40.000000, 0.000000)">
                                <g id="Group">
                                    <path d="M11.25,14.6875 C10.3875,14.6875 9.6875,15.3875 9.6875,16.25 C9.6875,17.1125 10.3875,17.8125 11.25,17.8125 C12.1125,17.8125 12.8125,17.1125 12.8125,16.25 C12.8125,15.3875 12.1125,14.6875 11.25,14.6875 L11.25,14.6875 Z M18.75,14.6875 C17.8875,14.6875 17.1875,15.3875 17.1875,16.25 C17.1875,17.1125 17.8875,17.8125 18.75,17.8125 C19.6125,17.8125 20.3125,17.1125 20.3125,16.25 C20.3125,15.3875 19.6125,14.6875 18.75,14.6875 L18.75,14.6875 Z M15,2.5 C8.1,2.5 2.5,8.1 2.5,15 C2.5,21.9 8.1,27.5 15,27.5 C21.9,27.5 27.5,21.9 27.5,15 C27.5,8.1 21.9,2.5 15,2.5 L15,2.5 Z M15,25 C9.4875,25 5,20.5125 5,15 C5,14.6375 5.025,14.275 5.0625,13.925 C8.0125,12.6125 10.35,10.2 11.575,7.2125 C13.8375,10.4125 17.5625,12.5 21.775,12.5 C22.75,12.5 23.6875,12.3875 24.5875,12.175 C24.85,13.0625 25,14.0125 25,15 C25,20.5125 20.5125,25 15,25 L15,25 Z" id="Shape" fill="#000000"></path>
                                    <polygon id="Shape" points="0 0 30 0 30 30 0 30"></polygon>
                                </g>
                            </g>
                            <g id="ic_favorite_white_48px" transform="translate(80.000000, 0.000000)">
                                <g id="Group">
                                    <polygon id="Shape" points="0 0 30 0 30 30 0 30"></polygon>
                                    <path d="M15,26.6875 L13.1875,25.0375 C6.75,19.2 2.5,15.35 2.5,10.625 C2.5,6.775 5.525,3.75 9.375,3.75 C11.55,3.75 13.6375,4.7625 15,6.3625 C16.3625,4.7625 18.45,3.75 20.625,3.75 C24.475,3.75 27.5,6.775 27.5,10.625 C27.5,15.35 23.25,19.2 16.8125,25.05 L15,26.6875 L15,26.6875 Z" id="Shape" fill="#000000"></path>
                                </g>
                            </g>
                            <g id="ic_trending_up_white_48px">
                                <g id="Group">
                                    <polygon id="Shape" fill="#000000" points="20 7.5 22.8625 10.3625 16.7625 16.4625 11.7625 11.4625 2.5 20.7375 4.2625 22.5 11.7625 15 16.7625 20 24.6375 12.1375 27.5 15 27.5 7.5"></polygon>
                                    <polygon id="Shape" points="0 0 30 0 30 30 0 30"></polygon>
                                </g>
                            </g>
                        </g>
                    </g>
                </g>
            </g>
        </g>
    </g>
</svg>