<?xml version="1.0" encoding="UTF-8" standalone="no"?>
<svg width="171px" height="49px" viewBox="0 0 171 49" version="1.1" xmlns="http://www.w3.org/2000/svg" xmlns:xlink="http://www.w3.org/1999/xlink" style="background: #FFFFFF;">
    <!-- Generator: Sketch 3.8.1 (29687) - http://www.bohemiancoding.com/sketch -->
    <title>Icons</title>
    <desc>Created with Sketch.</desc>
    <defs></defs>
    <g id="Page-1" stroke="none" stroke-width="1" fill="none" fill-rule="evenodd">
        <g id="Marketing" transform="translate(-637.000000, -257.000000)">
            <g id="Design-Copy">
                <g id="title" transform="translate(0.000000, 135.000000)">
                    <rect id="Rectangle-11" fill="#FFFFFF" x="0" y="0" width="1440" height="200"></rect>
                    <g id="title-copy-2" transform="translate(545.000000, 29.000000)">
                        <g id="Title">
                            <g id="Icons" transform="translate(90.000000, 91.000000)">
                                <g id="ic_face_white_48px" transform="translate(61.000000, 0.000000)">
                                    <g id="Group">
                                        <path d="M19.3525005,25.9731257 C17.6913255,25.9731257 16.3431254,27.3213258 16.3431254,28.9825008 C16.3431254,30.6436759 17.6913255,31.9918759 19.3525005,31.9918759 C21.0136756,31.9918759 22.3618756,30.6436759 22.3618756,28.9825008 C22.3618756,27.3213258 21.0136756,25.9731257 19.3525005,25.9731257 L19.3525005,25.9731257 Z M33.797501,25.9731257 C32.1363259,25.9731257 30.7881259,27.3213258 30.7881259,28.9825008 C30.7881259,30.6436759 32.1363259,31.9918759 33.797501,31.9918759 C35.458676,31.9918759 36.8068761,30.6436759 36.8068761,28.9825008 C36.8068761,27.3213258 35.458676,25.9731257 33.797501,25.9731257 L33.797501,25.9731257 Z M26.5750008,2.5 C13.2856003,2.5 2.5,13.2856003 2.5,26.5750008 C2.5,39.8644012 13.2856003,50.6500015 26.5750008,50.6500015 C39.8644012,50.6500015 50.6500015,39.8644012 50.6500015,26.5750008 C50.6500015,13.2856003 39.8644012,2.5 26.5750008,2.5 L26.5750008,2.5 Z M26.5750008,45.8350014 C15.9579254,45.8350014 7.31500015,37.1920761 7.31500015,26.5750008 C7.31500015,25.8768257 7.36315015,25.1786507 7.43537516,24.5045507 C13.1170753,21.9766756 17.6191005,17.3302005 19.9784506,11.5762753 C24.3360257,17.7394755 31.5103759,21.7600006 39.6236512,21.7600006 C41.5015012,21.7600006 43.3071263,21.5433256 45.0405263,21.1340506 C45.5461014,22.8433756 45.8350014,24.6730757 45.8350014,26.5750008 C45.8350014,37.1920761 37.1920761,45.8350014 26.5750008,45.8350014 L26.5750008,45.8350014 Z" id="Shape" fill="#000000"></path>
                                        <polygon id="Shape" points="0 0 30 0 30 30 0 30"></polygon>
                                    </g>
                                </g>
                                <g id="ic_favorite_white_48px" transform="translate(122.000000, 0.000000)">
                                    <g id="Group">
                                        <polygon id="Shape" points="0 0 30 0 30 30 0 30"></polygon>
                                        <path d="M26.5750008,47.9276264 L23.0841257,44.7497263 C10.6855003,33.5067009 2.5,26.0916007 2.5,16.9912504 C2.5,9.57615018 8.32615018,3.75 15.7412504,3.75 C19.9303006,3.75 23.9508257,5.70007506 26.5750008,8.78167516 C29.1991758,5.70007506 33.219701,3.75 37.4087511,3.75 C44.8238513,3.75 50.6500015,9.57615018 50.6500015,16.9912504 C50.6500015,26.0916007 42.4645013,33.5067009 30.0658759,44.7738013 L26.5750008,47.9276264 L26.5750008,47.9276264 Z" id="Shape" fill="#000000"></path>
                                    </g>
                                </g>
                                <g id="ic_trending_up_white_48px">
                                    <g id="Group">
                                        <polygon id="Shape" fill="#000000" points="36.2050011 7.5 41.7181762 13.0131752 29.9695759 24.7617755 20.3395756 15.1317752 2.5 32.9954258 5.89457511 36.3900009 20.3395756 21.9450005 29.9695759 31.5750008 45.1368264 16.4318253 50.6500015 21.9450005 50.6500015 7.5"></polygon>
                                        <polygon id="Shape" points="0 0 30 0 30 30 0 30"></polygon>
                                    </g>
                                </g>
                            </g>
                            <text id="Marketing" font-family="Roboto-Thin, Roboto" font-size="81.5599976" font-style="condensed" font-weight="300" fill="#000000">
                                <tspan x="0.134057984" y="76">Marketing</tspan>
                            </text>
                        </g>
                    </g>
                </g>
            </g>
        </g>
    </g>
</svg>