<?xml version="1.0" encoding="UTF-8" standalone="no"?>
<svg width="23px" height="18px" viewBox="0 0 23 18" version="1.1" xmlns="http://www.w3.org/2000/svg" xmlns:xlink="http://www.w3.org/1999/xlink">
    <!-- Generator: Sketch 40 (33762) - http://www.bohemiancoding.com/sketch -->
    <title>Arrow</title>
    <desc>Created with Sketch.</desc>
    <defs></defs>
    <g id="New-Design" stroke="none" stroke-width="1" fill="none" fill-rule="evenodd">
        <g id="Arrow" transform="translate(11.500000, 9.000000) rotate(180.000000) translate(-11.500000, -9.000000) translate(0.000000, -1.000000)" fill="#FFFFFF">
            <path d="M22.911,10.405 C22.861,10.534 22.787,10.657 22.683,10.761 L14.731,18.714 C14.331,19.113 13.684,19.113 13.285,18.714 C12.885,18.314 12.885,17.668 13.285,17.268 L19.553,11 L1,11 C0.448,11 0,10.552 0,10 C0,9.448 0.448,9 1,9 L19.555,9 L13.285,2.73 C12.885,2.33 12.885,1.683 13.285,1.283 C13.684,0.884 14.331,0.884 14.731,1.283 L22.683,9.236 C22.788,9.341 22.862,9.465 22.912,9.596 C22.967,9.72 23,9.856 23,10 C23,10.145 22.966,10.28 22.911,10.405 L22.911,10.405 Z" id="Shape"></path>
        </g>
    </g>
</svg>