<?xml version="1.0" encoding="UTF-8" standalone="no"?>
<svg width="102px" height="102px" viewBox="0 0 102 102" version="1.1" xmlns="http://www.w3.org/2000/svg" xmlns:xlink="http://www.w3.org/1999/xlink">
    <!-- Generator: Sketch 39.1 (31720) - http://www.bohemiancoding.com/sketch -->
    <title>design-icon</title>
    <desc>Created with Sketch.</desc>
    <defs></defs>
    <g id="New-Design" stroke="none" stroke-width="1" fill="none" fill-rule="evenodd">
        <g id="design-icon" transform="translate(1.000000, 1.000000)">
            <g id="Group-2" stroke-width="2" stroke="#2D232E">
                <circle id="Oval" cx="50" cy="50" r="50"></circle>
            </g>
            <g id="icon" transform="translate(6.000000, 18.000000)">
                <g id="ic_edit_black_24px" transform="translate(31.819805, 31.819805) rotate(-45.000000) translate(-31.819805, -31.819805) translate(9.319805, 9.319805)">
                    <g id="Group" transform="translate(0.000000, 0.000000)">
                        <path d="M5.625,32.34375 L5.625,39.375 L12.65625,39.375 L33.39375,18.6375 L26.3625,11.60625 L5.625,32.34375 L5.625,32.34375 Z M38.83125,13.2 C39.5625,12.46875 39.5625,11.2875 38.83125,10.55625 L34.44375,6.16875 C33.7125,5.4375 32.53125,5.4375 31.8,6.16875 L28.36875,9.6 L35.4,16.63125 L38.83125,13.2 L38.83125,13.2 Z" id="Shape" fill="#000000"></path>
                        <polygon id="Shape" points="0 0 45 0 45 45 0 45"></polygon>
                    </g>
                </g>
                <g id="ic_brush_black_24px" transform="translate(55.819805, 31.819805) rotate(135.000000) translate(-55.819805, -31.819805) translate(33.319805, 9.319805)">
                    <g id="Group" transform="translate(0.000000, -0.000000)">
                        <polygon id="Shape" points="0 0 45 0 45 45 0 45"></polygon>
                        <path d="M13.125,26.25 C10.0125,26.25 7.5,28.7625 7.5,31.875 C7.5,34.33125 5.325,35.625 3.75,35.625 C5.475,37.9125 8.41875,39.375 11.25,39.375 C15.39375,39.375 18.75,36.01875 18.75,31.875 C18.75,28.7625 16.2375,26.25 13.125,26.25 L13.125,26.25 Z M38.83125,8.68125 L36.31875,6.16875 C35.5875,5.4375 34.40625,5.4375 33.675,6.16875 L16.875,22.96875 L22.03125,28.125 L38.83125,11.325 C39.5625,10.59375 39.5625,9.4125 38.83125,8.68125 L38.83125,8.68125 Z" id="Shape" fill="#1A535C"></path>
                    </g>
                </g>
            </g>
        </g>
    </g>
</svg>