<?xml version="1.0" encoding="UTF-8" standalone="no"?>
<svg width="102px" height="102px" viewBox="0 0 102 102" version="1.1" xmlns="http://www.w3.org/2000/svg" xmlns:xlink="http://www.w3.org/1999/xlink">
    <!-- Generator: Sketch 39.1 (31720) - http://www.bohemiancoding.com/sketch -->
    <title>marketing-icon</title>
    <desc>Created with Sketch.</desc>
    <defs>
        <polygon id="path-1" points="0 0 64 0 64 64 0 64"></polygon>
    </defs>
    <g id="New-Design" stroke="none" stroke-width="1" fill="none" fill-rule="evenodd">
        <g id="marketing-icon" transform="translate(1.000000, 1.000000)">
            <g id="Group-2" stroke-width="2" stroke="#2D232E">
                <circle id="Oval" cx="50" cy="50" r="50"></circle>
            </g>
            <g id="ic_timeline_black_24px" transform="translate(19.000000, 0.000000)">
                <g id="Clipped">
                    <mask id="mask-2" fill="white">
                        <use xlink:href="#path-1"></use>
                    </mask>
                    <g id="a"></g>
                    <path d="M61.3333333,21.3333333 C61.3333333,24.2666667 58.9333333,26.6666667 56,26.6666667 C55.52,26.6666667 55.0666667,26.6133333 54.64,26.48 L45.1466667,35.9466667 C45.28,36.3733333 45.3333333,36.8533333 45.3333333,37.3333333 C45.3333333,40.2666667 42.9333333,42.6666667 40,42.6666667 C37.0666667,42.6666667 34.6666667,40.2666667 34.6666667,37.3333333 C34.6666667,36.8533333 34.72,36.3733333 34.8533333,35.9466667 L28.0533333,29.1466667 C27.6266667,29.28 27.1466667,29.3333333 26.6666667,29.3333333 C26.1866667,29.3333333 25.7066667,29.28 25.28,29.1466667 L13.1466667,41.3066667 C13.28,41.7333333 13.3333333,42.1866667 13.3333333,42.6666667 C13.3333333,45.6 10.9333333,48 8,48 C5.06666667,48 2.66666667,45.6 2.66666667,42.6666667 C2.66666667,39.7333333 5.06666667,37.3333333 8,37.3333333 C8.48,37.3333333 8.93333333,37.3866667 9.36,37.52 L21.52,25.3866667 C21.3866667,24.96 21.3333333,24.48 21.3333333,24 C21.3333333,21.0666667 23.7333333,18.6666667 26.6666667,18.6666667 C29.6,18.6666667 32,21.0666667 32,24 C32,24.48 31.9466667,24.96 31.8133333,25.3866667 L38.6133333,32.1866667 C39.04,32.0533333 39.52,32 40,32 C40.48,32 40.96,32.0533333 41.3866667,32.1866667 L50.8533333,22.6933333 C50.72,22.2666667 50.6666667,21.8133333 50.6666667,21.3333333 C50.6666667,18.4 53.0666667,16 56,16 C58.9333333,16 61.3333333,18.4 61.3333333,21.3333333 L61.3333333,21.3333333 Z" id="Shape" fill="#1A535C" mask="url(#mask-2)"></path>
                </g>
            </g>
            <g id="faces" transform="translate(13.000000, 48.000000)">
                <g id="ic_face_black_24px" transform="translate(20.000000, 14.000000)">
                    <g id="Group">
                        <path d="M12.75,16.6458333 C11.7725,16.6458333 10.9791667,17.4391667 10.9791667,18.4166667 C10.9791667,19.3941667 11.7725,20.1875 12.75,20.1875 C13.7275,20.1875 14.5208333,19.3941667 14.5208333,18.4166667 C14.5208333,17.4391667 13.7275,16.6458333 12.75,16.6458333 L12.75,16.6458333 Z M21.25,16.6458333 C20.2725,16.6458333 19.4791667,17.4391667 19.4791667,18.4166667 C19.4791667,19.3941667 20.2725,20.1875 21.25,20.1875 C22.2275,20.1875 23.0208333,19.3941667 23.0208333,18.4166667 C23.0208333,17.4391667 22.2275,16.6458333 21.25,16.6458333 L21.25,16.6458333 Z M17,2.83333333 C9.18,2.83333333 2.83333333,9.18 2.83333333,17 C2.83333333,24.82 9.18,31.1666667 17,31.1666667 C24.82,31.1666667 31.1666667,24.82 31.1666667,17 C31.1666667,9.18 24.82,2.83333333 17,2.83333333 L17,2.83333333 Z M17,28.3333333 C10.7525,28.3333333 5.66666667,23.2475 5.66666667,17 C5.66666667,16.5891667 5.695,16.1783333 5.7375,15.7816667 C9.08083333,14.2941667 11.73,11.56 13.1183333,8.17416667 C15.6825,11.8008333 19.9041667,14.1666667 24.6783333,14.1666667 C25.7833333,14.1666667 26.8458333,14.0391667 27.8658333,13.7983333 C28.1633333,14.8041667 28.3333333,15.8808333 28.3333333,17 C28.3333333,23.2475 23.2475,28.3333333 17,28.3333333 L17,28.3333333 Z" id="Shape" fill="#000000"></path>
                        <polygon id="Shape" points="0 0 34 0 34 34 0 34"></polygon>
                    </g>
                </g>
                <g id="ic_face_black_24px">
                    <g id="Group">
                        <path d="M12.75,16.6458333 C11.7725,16.6458333 10.9791667,17.4391667 10.9791667,18.4166667 C10.9791667,19.3941667 11.7725,20.1875 12.75,20.1875 C13.7275,20.1875 14.5208333,19.3941667 14.5208333,18.4166667 C14.5208333,17.4391667 13.7275,16.6458333 12.75,16.6458333 L12.75,16.6458333 Z M21.25,16.6458333 C20.2725,16.6458333 19.4791667,17.4391667 19.4791667,18.4166667 C19.4791667,19.3941667 20.2725,20.1875 21.25,20.1875 C22.2275,20.1875 23.0208333,19.3941667 23.0208333,18.4166667 C23.0208333,17.4391667 22.2275,16.6458333 21.25,16.6458333 L21.25,16.6458333 Z M17,2.83333333 C9.18,2.83333333 2.83333333,9.18 2.83333333,17 C2.83333333,24.82 9.18,31.1666667 17,31.1666667 C24.82,31.1666667 31.1666667,24.82 31.1666667,17 C31.1666667,9.18 24.82,2.83333333 17,2.83333333 L17,2.83333333 Z M17,28.3333333 C10.7525,28.3333333 5.66666667,23.2475 5.66666667,17 C5.66666667,16.5891667 5.695,16.1783333 5.7375,15.7816667 C9.08083333,14.2941667 11.73,11.56 13.1183333,8.17416667 C15.6825,11.8008333 19.9041667,14.1666667 24.6783333,14.1666667 C25.7833333,14.1666667 26.8458333,14.0391667 27.8658333,13.7983333 C28.1633333,14.8041667 28.3333333,15.8808333 28.3333333,17 C28.3333333,23.2475 23.2475,28.3333333 17,28.3333333 L17,28.3333333 Z" id="Shape" fill="#000000"></path>
                        <polygon id="Shape" points="0 0 34 0 34 34 0 34"></polygon>
                    </g>
                </g>
                <g id="ic_face_black_24px" transform="translate(40.000000, 0.000000)">
                    <g id="Group">
                        <path d="M12.75,16.6458333 C11.7725,16.6458333 10.9791667,17.4391667 10.9791667,18.4166667 C10.9791667,19.3941667 11.7725,20.1875 12.75,20.1875 C13.7275,20.1875 14.5208333,19.3941667 14.5208333,18.4166667 C14.5208333,17.4391667 13.7275,16.6458333 12.75,16.6458333 L12.75,16.6458333 Z M21.25,16.6458333 C20.2725,16.6458333 19.4791667,17.4391667 19.4791667,18.4166667 C19.4791667,19.3941667 20.2725,20.1875 21.25,20.1875 C22.2275,20.1875 23.0208333,19.3941667 23.0208333,18.4166667 C23.0208333,17.4391667 22.2275,16.6458333 21.25,16.6458333 L21.25,16.6458333 Z M17,2.83333333 C9.18,2.83333333 2.83333333,9.18 2.83333333,17 C2.83333333,24.82 9.18,31.1666667 17,31.1666667 C24.82,31.1666667 31.1666667,24.82 31.1666667,17 C31.1666667,9.18 24.82,2.83333333 17,2.83333333 L17,2.83333333 Z M17,28.3333333 C10.7525,28.3333333 5.66666667,23.2475 5.66666667,17 C5.66666667,16.5891667 5.695,16.1783333 5.7375,15.7816667 C9.08083333,14.2941667 11.73,11.56 13.1183333,8.17416667 C15.6825,11.8008333 19.9041667,14.1666667 24.6783333,14.1666667 C25.7833333,14.1666667 26.8458333,14.0391667 27.8658333,13.7983333 C28.1633333,14.8041667 28.3333333,15.8808333 28.3333333,17 C28.3333333,23.2475 23.2475,28.3333333 17,28.3333333 L17,28.3333333 Z" id="Shape" fill="#000000"></path>
                        <polygon id="Shape" points="0 0 34 0 34 34 0 34"></polygon>
                    </g>
                </g>
            </g>
        </g>
    </g>
</svg>